<svg width="86" height="85" viewBox="0 0 86 85" fill="none" xmlns="http://www.w3.org/2000/svg">
<path fill-rule="evenodd" clip-rule="evenodd" d="M25.3911 0.236112C29.9163 0 31.3776 0 42.8793 0C54.3811 0 55.8424 0 60.4147 0.236112C63.927 0.312108 67.4016 0.982667 70.6909 2.21945C76.3672 4.46973 80.834 9.01302 82.9939 14.7334C84.2285 18.0285 84.8978 21.5091 84.9737 25.0278C85.2094 29.561 85.2094 31.025 85.2094 42.5462V42.5473C85.2094 49.5681 85.1218 52.7847 85.0535 55.2943L85.0534 55.2986C85.0095 56.9058 84.9737 58.2235 84.9737 60.0668C84.8978 63.5854 84.2285 67.0662 82.9939 70.3613C80.7907 76.0647 76.2899 80.5737 70.5966 82.7807C67.3073 84.0176 63.8327 84.6883 60.3205 84.7643C55.7952 85 54.3339 85 42.8335 85C35.821 85 32.6096 84.9126 30.1037 84.8441C28.4995 84.8002 27.1838 84.7643 25.3439 84.7643C21.8315 84.6883 18.3571 84.0176 15.0679 82.7807C9.365 80.5633 4.86253 76.0354 2.67053 70.3141C1.43597 67.0189 0.766601 63.5382 0.690738 60.0196C0.455048 55.4861 0.455048 54.0225 0.455048 42.5001C0.455048 30.9778 0.455048 29.514 0.690738 24.9334C0.766601 21.4146 1.43597 17.9341 2.67053 14.6389C4.88418 8.92588 9.40375 4.41537 15.115 2.21945C18.4043 0.982667 21.8786 0.312108 25.3911 0.236112ZM60.0405 7.89237C55.5623 7.65627 54.1953 7.65627 42.8822 7.65627V7.75073C35.9035 7.75073 32.7138 7.83981 30.2533 7.90857L30.2494 7.90868L30.2493 7.90868C28.7063 7.95175 27.4496 7.98683 25.724 7.98683C23.0359 8.02145 20.3734 8.51655 17.8519 9.45074C14.2077 10.8907 11.323 13.7805 9.8856 17.4313C8.95311 19.9573 8.45891 22.6244 8.42431 25.3174C8.18862 29.8035 8.18862 31.1258 8.18862 42.5063C8.18862 49.4974 8.27757 52.693 8.34621 55.1578C8.38929 56.7055 8.42431 57.9651 8.42431 59.6951C8.45891 62.3881 8.95311 65.0552 9.8856 67.5814C11.323 71.2322 14.2077 74.1217 17.8519 75.5617C20.3734 76.4959 23.0359 76.9914 25.724 77.0258C30.2021 77.262 31.522 77.262 42.8822 77.262C49.8436 77.262 53.0349 77.1732 55.4926 77.1048L55.4932 77.1047L55.511 77.1042C57.0562 77.0608 58.3133 77.0258 60.0405 77.0258C62.7288 76.9914 65.3911 76.4959 67.9125 75.5617C71.5568 74.1217 74.4416 71.2322 75.8789 67.5814C76.8113 65.0552 77.3058 62.3881 77.3402 59.6951C77.5759 55.2093 77.5759 53.8869 77.5759 42.5063C77.5759 35.5323 77.4872 32.3354 77.4189 29.873L77.4184 29.8548C77.375 28.3073 77.3402 27.0477 77.3402 25.3174C77.3058 22.6244 76.8113 19.9573 75.8789 17.4313C74.4416 13.7805 71.5568 10.8907 67.9125 9.45074C65.3968 8.48434 62.7339 7.95722 60.0405 7.89237ZM21.0964 42.4977C21.0964 30.4487 30.8467 20.681 42.8742 20.681C48.65 20.681 54.1892 22.9796 58.2733 27.071C62.3573 31.1624 64.652 36.7116 64.652 42.4977C64.652 54.5466 54.9019 64.3145 42.8742 64.3145C30.8467 64.3145 21.0964 54.5466 21.0964 42.4977ZM28.7379 42.5014C28.7379 50.3267 35.0693 56.67 42.8794 56.67C46.6299 56.67 50.2268 55.1776 52.8788 52.52C55.5308 49.8629 57.0208 46.2593 57.0208 42.5014C57.0208 34.6763 50.6897 28.3327 42.8794 28.3327C35.0693 28.3327 28.7379 34.6763 28.7379 42.5014ZM70.5909 19.8412C70.5909 22.6583 68.3113 24.9419 65.5 24.9419C62.6882 24.9419 60.4091 22.6583 60.4091 19.8412C60.4091 17.0241 62.6882 14.7405 65.5 14.7405C68.3113 14.7405 70.5909 17.0241 70.5909 19.8412Z" fill="#F3E0EC"/>
</svg>
