<svg width="316" height="43" viewBox="0 0 316 43" fill="none" xmlns="http://www.w3.org/2000/svg">
<path d="M27.765 42.06H3.765V42L0.045 42.06C-0.015 41.94 -0.015 41.82 0.045 41.76C0.045 41.34 0.105 41.04 0.225 40.8C0.345 40.5 0.585 40.32 0.885 40.26C1.305 40.14 1.785 40.08 2.025 39.66C2.265 39.18 2.145 38.58 2.205 38.1L2.265 21C2.265 21 2.205 4.02 2.205 3.96C2.145 3.42 2.205 2.76 1.845 2.28C1.665 2.04 1.485 1.98 1.245 1.92C0.945 1.86 0.705 1.8 0.525 1.62C0.345 1.56 0.285 1.38 0.225 1.26C0.105 1.02 0.045 0.720002 0.045 0.3C-0.015 0.240001 -0.015 0.120002 0.045 0H6.645C6.705 0 6.705 0.0599993 6.765 0.0599993H7.965C11.925 0.0599993 12.405 3.12 12.465 5.04C12.465 5.04 12.465 5.1 12.465 5.16V6.42V11.34V17.76V21V22.02V26.94V28.08V33.18V35.64V40.26H23.445C23.865 40.26 24.285 40.26 24.645 40.14C24.945 40.08 25.245 39.96 25.485 39.84C25.545 39.84 25.545 39.84 25.545 39.84C25.665 39.78 25.725 39.66 25.785 39.54C25.845 39.42 25.905 39.36 25.905 39.24C25.965 39.06 25.965 38.94 26.025 38.76C26.085 38.7 26.085 38.58 26.145 38.52C26.265 38.4 26.385 38.28 26.565 38.22C26.745 38.1 27.045 38.04 27.465 38.04C27.585 38.04 27.645 38.04 27.765 38.04V42.06ZM62.8875 40.8C63.0075 41.04 63.0675 41.34 63.0675 41.76C63.0675 41.82 63.0675 41.94 63.0675 42H56.4675C56.4075 42 56.4075 42 56.3475 42H55.1475C54.5475 42 54.0675 41.94 53.5875 41.82C53.5875 41.82 53.5275 41.82 53.4675 41.82C53.4075 41.76 53.3475 41.76 53.2875 41.76C53.2275 41.7 53.2275 41.7 53.1675 41.7C53.1075 41.64 53.0475 41.64 53.0475 41.64C52.9875 41.58 52.9275 41.58 52.8675 41.58C52.8075 41.52 52.8075 41.52 52.7475 41.52C52.6875 41.46 52.6875 41.46 52.6275 41.4C52.5675 41.4 52.5675 41.4 52.5675 41.4C52.5075 41.4 52.5075 41.34 52.5075 41.34C52.4475 41.34 52.3875 41.28 52.3275 41.22C52.3275 41.22 52.2675 41.22 52.2675 41.16C52.2075 41.16 52.1475 41.1 52.0875 41.04L52.0275 40.98C51.9675 40.92 51.9075 40.86 51.8475 40.8C51.7275 40.68 51.6675 40.62 51.6075 40.56C51.5475 40.44 51.4275 40.26 51.3675 40.14C48.9675 41.94 46.5675 42.06 45.9675 42.06C44.9475 42.06 43.9275 42 43.0275 41.88C41.4075 41.7 40.0275 41.4 38.7675 40.98C32.1075 38.58 30.6675 32.76 30.6075 28.02V27.96C30.6075 27.84 30.6075 27.66 30.6075 27.54V27.48C30.6075 27.42 30.6075 27.3 30.6075 27.18V15.72C30.5475 15.66 30.5475 15.54 30.4875 15.42C30.2475 15 29.7675 15 29.3475 14.88C29.0475 14.76 28.8075 14.58 28.6875 14.28C28.5675 14.1 28.5075 13.8 28.5075 13.38C28.4475 13.26 28.4475 13.2 28.5075 13.08H30.6075H33.3075C35.0475 13.08 36.4275 13.2 37.5075 13.56C39.5475 14.16 40.5675 15.48 40.8675 17.58C40.8675 19.32 40.8675 21.24 40.8675 23.22C40.8675 26.22 40.8675 29.34 40.8675 31.86C40.8675 33.72 41.1075 35.34 41.5875 36.72C42.4875 39.42 44.1075 41.04 45.9675 41.04C46.8075 41.04 48.8475 40.5 50.1675 38.58C50.2275 38.4 50.3475 38.28 50.4075 38.16C50.4075 38.1 50.4675 38.1 50.4675 38.04C50.5275 37.98 50.5875 37.86 50.6475 37.74V37.68C50.6475 37.44 50.6475 37.26 50.6475 37.02C50.6475 37.02 50.6475 36.96 50.6475 36.9V35.64V30.72V27.06V21.9V18.78C50.6475 18.66 50.6475 18.54 50.6475 18.48C50.6475 18.12 50.7075 17.76 50.7075 17.46C51.1875 14.28 53.4075 13.08 58.2075 13.08H60.9075H63.0675C63.0675 13.2 63.0675 13.26 63.0675 13.38C63.0675 13.8 63.0075 14.1 62.8875 14.28C62.7675 14.58 62.5275 14.76 62.2275 14.88C61.8075 15 61.2675 15.06 61.0875 15.48C60.7875 15.9 60.9075 16.5 60.9075 17.04V22.32C60.9075 29.82 60.9075 38.1 60.9075 38.1C60.9075 38.64 60.9075 39.36 61.2675 39.84C61.4475 40.02 61.6275 40.14 61.8675 40.14C62.1075 40.2 62.4075 40.26 62.5875 40.44C62.7075 40.5 62.8275 40.68 62.8875 40.8ZM99.811 40.8C99.931 41.04 99.991 41.34 99.991 41.76C99.991 41.82 99.991 41.94 99.991 42.06L97.1714 42H95.1314C93.4514 42 92.0714 41.88 90.9914 41.52C88.6514 40.8 87.6314 39.24 87.5714 36.48C87.5714 36.42 87.5714 36.36 87.5714 36.3V33.18V31.5C87.5114 30 87.4514 28.62 87.4514 27.72C87.4514 24.12 86.5514 20.28 83.4314 20.28C80.9714 20.28 79.1114 19.38 77.8514 18.24V19.44V24.36V28.08V33.18V36.3C77.8514 36.42 77.8514 36.54 77.8514 36.66C77.8514 37.02 77.7914 37.38 77.7314 37.68C77.3114 40.86 75.0914 42 70.2314 42H67.5914H65.4314C65.4314 41.94 65.4314 41.82 65.4314 41.76C65.4314 41.34 65.4914 41.04 65.6114 40.8C65.7314 40.5 65.9714 40.32 66.2714 40.26C66.6914 40.14 67.1714 40.08 67.4114 39.66C67.6514 39.18 67.5914 38.58 67.5914 38.1V32.76C67.5914 25.32 67.5914 17.04 67.5914 17.04C67.5314 16.44 67.5914 15.78 67.2314 15.3C67.0514 15.06 66.8714 15 66.6314 14.94C66.3314 14.88 66.0914 14.82 65.9114 14.7C65.7314 14.58 65.6714 14.46 65.6114 14.28C65.4914 14.1 65.4314 13.8 65.4314 13.38C65.3714 13.26 65.3714 13.2 65.4314 13.08H72.0314C72.0914 13.08 72.0914 13.08 72.1514 13.08H73.3514C73.8914 13.08 74.4314 13.14 74.8514 13.26C75.7514 13.5 76.4114 13.98 76.8314 14.58C77.0714 14.82 77.2514 15.12 77.3714 15.42C78.6314 17.34 80.9714 18.84 85.0514 18.48C95.8514 17.64 97.8914 21.36 97.8914 28.2V38.04C97.8914 38.4 97.8914 38.76 97.8314 39.06C97.8314 39.3 97.8914 39.48 98.0114 39.66C98.1914 40.08 98.7314 40.14 99.1514 40.26C99.4514 40.38 99.6914 40.5 99.811 40.8ZM133.365 40.8C133.425 41.04 133.485 41.34 133.545 41.76C133.545 41.82 133.545 41.94 133.545 42H126.885C126.825 42 126.825 42 126.765 42H125.625C121.605 42 121.125 38.94 121.065 37.02C121.065 37.02 121.065 36.96 121.065 36.9V36.6C115.665 45.72 102.105 42.18 102.105 34.92C102.105 26.34 110.025 25.32 114.165 25.32C121.065 25.32 121.005 19.8 121.005 19.8H121.065V17.04C121.065 15.48 120.405 14.82 119.085 14.82H116.445C113.505 14.82 112.845 19.74 113.145 20.7C113.325 21.42 114.285 21.48 114.045 22.38C113.985 22.56 113.925 22.68 113.865 22.92L112.665 22.38L105.825 19.32C106.125 18.36 106.605 17.28 107.325 16.26C108.585 14.52 110.625 13.08 113.985 13.08C113.985 13.08 116.145 13.08 116.745 13.08H122.685H123.705C129.165 13.08 131.325 14.64 131.325 18.78V21.9V25.92C131.325 30.9 131.385 38.04 131.385 38.1C131.385 38.64 131.385 39.3 131.685 39.78C131.865 40.02 132.045 40.08 132.345 40.14C132.585 40.2 132.825 40.26 133.065 40.44C133.185 40.5 133.305 40.68 133.365 40.8ZM121.005 30.72C121.005 28.98 121.005 27.78 121.065 26.94V24.66C120.285 25.68 119.025 26.76 116.985 26.94C113.445 27.3 112.125 30.12 112.305 33.9C112.545 40.14 121.005 39.36 121.005 30.72ZM183.331 42.06H159.331V42L155.611 42.06C155.551 41.94 155.551 41.82 155.611 41.76C155.611 41.34 155.671 41.04 155.791 40.8C155.911 40.5 156.151 40.32 156.451 40.26C156.871 40.14 157.351 40.08 157.591 39.66C157.831 39.18 157.711 38.58 157.771 38.1L157.831 21C157.831 21 157.771 4.02 157.771 3.96C157.711 3.42 157.771 2.76 157.411 2.28C157.231 2.04 157.051 1.98 156.811 1.92C156.511 1.86 156.271 1.8 156.091 1.62C155.911 1.56 155.851 1.38 155.791 1.26C155.671 1.02 155.611 0.720002 155.611 0.3C155.551 0.240001 155.551 0.120002 155.611 0H162.211C162.271 0 162.271 0.0599993 162.331 0.0599993H163.531C167.491 0.0599993 167.971 3.12 168.031 5.04C168.031 5.04 168.031 5.1 168.031 5.16V6.42V11.34V17.76V21V22.02V26.94V28.08V33.18V35.64V40.26H179.011C179.431 40.26 179.851 40.26 180.211 40.14C180.511 40.08 180.811 39.96 181.051 39.84C181.111 39.84 181.111 39.84 181.111 39.84C181.231 39.78 181.291 39.66 181.351 39.54C181.411 39.42 181.471 39.36 181.471 39.24C181.531 39.06 181.531 38.94 181.591 38.76C181.651 38.7 181.651 38.58 181.711 38.52C181.831 38.4 181.951 38.28 182.131 38.22C182.311 38.1 182.611 38.04 183.031 38.04C183.151 38.04 183.211 38.04 183.331 38.04V42.06ZM238.826 13.08C244.286 13.08 246.446 14.64 246.446 18.78V25.92C246.446 30.96 246.446 38.1 246.446 38.1C246.506 38.64 246.446 39.3 246.806 39.84C246.986 40.02 247.166 40.08 247.466 40.14C247.706 40.2 247.946 40.26 248.126 40.44C248.306 40.5 248.366 40.68 248.426 40.8C248.546 41.04 248.606 41.34 248.606 41.76C248.666 41.82 248.666 41.94 248.606 42H240.686C236.726 42 236.246 38.94 236.186 37.02C236.186 37.02 236.186 36.96 236.186 36.9V36.6C230.786 45.72 217.166 42.18 217.166 34.92C217.166 26.34 225.146 25.38 229.286 25.38C236.186 25.38 236.126 19.8 236.126 19.8V17.04C236.126 15.48 235.526 14.82 234.146 14.82H228.926C225.806 14.82 224.606 17.94 222.986 20.22C221.066 22.98 218.366 25.2 215.066 26.7C215.066 27 215.066 27.24 215.066 27.48C215.066 27.66 215.066 27.78 215.066 27.96C215.006 28.68 214.946 29.46 214.886 30.3C214.226 35.76 211.466 41.76 200.486 42C197.906 41.94 195.806 41.58 194.066 40.98C190.346 39.66 188.246 37.26 187.106 34.62C186.146 32.28 185.906 29.76 185.906 27.54C185.906 27.36 185.906 27.24 185.906 27.06C185.906 26.34 185.966 25.56 186.026 24.72C186.686 19.2 189.446 13.26 200.486 13.02C203.006 13.08 205.106 13.44 206.906 14.04C210.566 15.36 212.666 17.76 213.806 20.4C214.286 21.66 214.646 22.92 214.826 24.18C214.826 24.12 217.286 22.68 217.526 22.5C218.486 21.84 219.326 21 220.106 20.16C221.486 18.54 222.026 16.38 223.646 14.94C225.146 13.68 227.126 13.08 229.106 13.08C229.886 13.08 237.206 13.08 237.806 13.08H238.826ZM204.806 31.68C204.926 30.72 205.046 29.7 205.046 28.8C201.686 28.74 198.506 27.96 195.866 26.46C195.806 26.82 195.806 27.18 195.806 27.54C195.866 32.76 197.306 39.9 200.486 40.92C201.146 40.68 201.746 40.2 202.226 39.48C203.126 38.34 203.786 36.6 204.206 34.74C204.386 34.08 204.506 33.42 204.626 32.76C204.686 32.4 204.746 32.04 204.806 31.68ZM196.046 23.82C198.566 25.44 201.686 26.34 205.106 26.4C204.866 21.36 203.366 15.06 200.486 14.1C199.766 14.34 199.166 14.82 198.686 15.54C197.846 16.68 197.186 18.42 196.706 20.28C196.526 20.94 196.406 21.6 196.286 22.26C196.226 22.62 196.166 22.98 196.106 23.34C196.106 23.52 196.106 23.64 196.046 23.82ZM236.066 30.72C236.066 28.98 236.126 27.78 236.186 26.94V24.66C235.406 25.68 234.086 26.76 232.046 26.94C228.506 27.3 227.246 30.12 227.366 33.9C227.666 40.14 236.066 39.36 236.066 30.72ZM285.436 40.8C285.556 41.04 285.616 41.34 285.616 41.76C285.616 41.82 285.616 41.94 285.616 42.06L282.796 42H280.756C279.076 42 277.696 41.88 276.616 41.52C274.276 40.8 273.256 39.24 273.196 36.48C273.196 36.42 273.196 36.36 273.196 36.3V33.18V31.5C273.136 30 273.076 28.62 273.076 27.72C273.076 24.12 272.176 20.28 269.056 20.28C266.596 20.28 264.736 19.38 263.476 18.24V19.44V24.36V28.08V33.18V36.3C263.476 36.42 263.476 36.54 263.476 36.66C263.476 37.02 263.416 37.38 263.356 37.68C262.936 40.86 260.716 42 255.856 42H253.216H251.056C251.056 41.94 251.056 41.82 251.056 41.76C251.056 41.34 251.116 41.04 251.236 40.8C251.356 40.5 251.596 40.32 251.896 40.26C252.316 40.14 252.796 40.08 253.036 39.66C253.276 39.18 253.216 38.58 253.216 38.1V32.76C253.216 25.32 253.216 17.04 253.216 17.04C253.156 16.44 253.216 15.78 252.856 15.3C252.676 15.06 252.496 15 252.256 14.94C251.956 14.88 251.716 14.82 251.536 14.7C251.356 14.58 251.296 14.46 251.236 14.28C251.116 14.1 251.056 13.8 251.056 13.38C250.996 13.26 250.996 13.2 251.056 13.08H257.656C257.716 13.08 257.716 13.08 257.776 13.08H258.976C259.516 13.08 260.056 13.14 260.476 13.26C261.376 13.5 262.036 13.98 262.456 14.58C262.696 14.82 262.876 15.12 262.996 15.42C264.256 17.34 266.596 18.84 270.676 18.48C281.476 17.64 283.516 21.36 283.516 28.2V38.04C283.516 38.4 283.516 38.76 283.456 39.06C283.456 39.3 283.516 39.48 283.636 39.66C283.816 40.08 284.356 40.14 284.776 40.26C285.076 40.38 285.316 40.5 285.436 40.8ZM303.399 25.14C308.859 25.86 316.599 25.92 316.599 32.22C316.599 40.38 305.859 42 302.259 42C287.619 42 287.919 31.38 287.919 31.38H298.599C298.659 33 297.399 32.46 296.979 32.88C296.919 33 296.859 33.12 296.799 33.24C296.799 38.28 299.319 41.04 302.799 41.04C304.419 41.04 306.159 39.6 306.819 37.08C309.039 25.98 287.919 34.26 287.919 22.38C287.919 15 298.179 12.84 302.619 12.96C316.239 13.32 316.599 23.58 316.599 23.58H305.859C305.859 21.96 307.119 22.5 307.539 22.08C307.599 21.96 307.659 21.84 307.659 21.72C308.559 19.32 306.159 13.92 302.619 13.92C300.759 13.92 297.699 15.6 297.699 18.66V18.96C297.699 21.78 299.019 24.54 303.399 25.14Z" fill="#F3E0EC"/>
</svg>
