<svg width="621" height="629" viewBox="0 0 621 629" fill="none" xmlns="http://www.w3.org/2000/svg">
<path d="M320.924 1.84488C370.411 10.9783 415.414 35.3896 456.431 75.2446L477.355 95.6704L483.001 89.6921C488.481 83.8799 503.593 74.0822 506.914 74.0822C507.745 74.0822 504.756 76.4071 500.106 79.0641C495.29 81.8871 490.474 85.3745 489.312 86.703C487.817 88.5297 488.814 88.3636 492.799 85.8727C500.272 81.389 514.221 78.3998 521.362 79.7283C524.517 80.2265 530.661 83.0496 534.813 85.8727C540.459 89.526 546.105 91.3527 557.73 93.3455C576.827 96.3346 586.625 101.483 600.242 115.1C617.512 132.702 623.324 150.305 619.173 172.89C616.848 185.676 608.711 202.615 602.234 208.759C597.751 212.911 596.09 216.73 592.271 232.174C589.614 242.304 585.96 253.264 584.134 256.419C578.654 265.719 581.477 264.224 588.285 254.26C591.773 249.278 594.928 245.127 595.26 245.127C596.422 245.127 589.448 257.582 584.466 264.39C578.155 273.025 561.383 285.646 547.932 292.123C539.795 295.942 537.636 297.603 538.466 299.762C545.441 317.696 545.773 349.746 539.297 370.504C530.827 397.406 516.38 418.164 494.792 434.106C479.348 445.565 426.706 473.297 411.594 477.781C400.136 481.268 398.974 484.922 398.974 519.13C398.974 542.545 399.638 550.184 402.129 558.155C406.779 573.765 415.912 596.35 425.045 615.945C429.695 625.743 433.183 633.88 432.85 634.212C422.056 641.353 403.789 656.963 394.49 666.76C378.714 683.533 368.584 698.478 350.815 730.861C326.072 775.864 312.953 792.636 290.203 808.08C278.744 815.885 254.997 827.509 247.524 829.004L242.709 830L242.542 793.632C242.376 754.109 239.553 724.052 232.745 690.175C219.294 623.252 196.709 575.426 172.464 563.303C160.507 557.159 153.865 556.827 116.667 560.646C69.1729 565.462 52.2345 563.801 42.7689 552.841C34.4658 543.376 33.3034 534.906 37.1228 509.001C38.1192 501.86 37.7871 501.03 31.3106 493.557C22.3432 483.095 22.3432 477.117 31.4767 471.138L37.621 467.153L28.4875 458.684C20.8487 451.377 19.5202 449.218 19.5202 444.07C19.5202 440.915 20.8487 436.431 22.5093 434.272C26.3287 429.457 29.3179 421.153 28.3215 418.164C27.8233 417.002 23.3396 413.182 18.1917 409.695C5.57088 401.226 1.25325 396.244 0.256875 389.269C-0.573439 384.121 0.256875 382.461 8.06183 372.995C13.0437 367.349 20.1844 358.382 24.1699 353.234C31.6427 343.602 42.7689 322.346 42.7689 317.862C42.7689 316.368 40.6101 314.375 37.9531 313.213C35.2961 312.216 30.9785 309.061 28.4875 306.238C24.1699 301.588 24.0039 301.256 27.8233 303.747C33.6355 307.733 35.4622 307.234 31.8088 302.751C28.6536 299.097 28.6536 299.097 31.9749 301.754C36.6246 305.574 45.426 309.891 46.5884 308.895C47.0866 308.397 45.9241 302.917 44.2635 296.938C37.1228 272.527 34.1337 254.759 35.1301 242.47C37.2889 218.557 50.4078 175.214 64.3571 146.652C69.8372 135.525 70.5014 132.868 69.1729 128.385C65.5196 115.598 76.1476 87.8654 90.429 73.0858C94.7466 68.6021 102.718 61.4614 108.032 57.4759C113.346 53.3243 120.818 47.6782 124.638 44.6891C138.587 34.0611 164.493 23.267 188.074 18.6172C194.55 17.2887 205.178 14.2996 211.821 11.8086C234.571 3.67157 250.846 0.848504 280.239 0.184252C299.834 -0.313936 311.459 0.184252 320.924 1.84488ZM259.149 7.82314C243.871 10.4801 246.362 12.1408 263.134 10.4801C287.213 8.15527 323.747 10.6462 356.628 16.9566C358.952 17.2887 357.79 16.4584 354.137 15.1299C334.873 7.49102 283.56 3.67157 259.149 7.82314ZM167.98 26.5882C155.692 30.7398 131.613 42.3642 132.775 43.5266C133.273 43.8588 136.428 43.0285 140.082 41.866C143.569 40.5375 150.71 38.2126 155.692 36.7181C165.655 33.7289 186.413 22.6027 182.096 22.6027C180.767 22.6027 174.291 24.4294 167.98 26.5882ZM128.623 49.5049C120.32 53.9886 112.681 59.6347 108.198 64.7827C97.5697 76.4071 99.2303 77.2374 112.017 66.4433C117.995 61.2954 127.461 54.1547 133.107 50.6673C144.067 43.5266 145.23 42.5303 143.237 42.5303C142.573 42.5303 135.93 45.6855 128.623 49.5049ZM83.2883 91.6848C79.967 97.6631 77.6421 102.811 77.9743 103.309C79.3028 104.472 92.5878 83.2156 92.5878 79.8944C92.5878 77.0713 88.7683 82.0532 83.2883 91.6848ZM546.603 285.978C537.968 288.967 533.651 291.624 537.636 291.624C540.127 291.624 557.564 283.653 555.737 283.487C555.239 283.321 551.087 284.484 546.603 285.978ZM534.481 358.714C525.68 390.598 507.247 417.666 478.684 440.915C469.052 448.72 478.352 443.738 489.478 435.103C517.376 413.681 534.481 386.114 540.127 353.898C542.95 337.624 543.116 330.649 541.455 318.859C540.293 311.552 540.127 312.382 539.131 328.324C538.466 338.122 536.308 351.739 534.481 358.714Z" fill="#121212"/>
</svg>
