<svg width="621" height="629" viewBox="0 0 621 629" fill="none" xmlns="http://www.w3.org/2000/svg">
<path d="M299.798 1.84497C250.311 10.9784 205.308 35.3896 164.291 75.2447L143.367 95.6704L137.721 89.6921C132.24 83.8799 117.129 74.0823 113.807 74.0823C112.977 74.0823 115.966 76.4072 120.616 79.0641C125.432 81.8872 130.248 85.3745 131.41 86.703C132.905 88.5297 131.908 88.3636 127.923 85.8727C120.45 81.389 106.501 78.3999 99.36 79.7284C96.2048 80.2266 90.0605 83.0496 85.9089 85.8727C80.2628 89.5261 74.6167 91.3528 62.9923 93.3455C43.8951 96.3347 34.0974 101.483 20.4802 115.1C3.20968 132.702 -2.60252 150.305 1.54905 172.89C3.87393 185.676 12.011 202.615 18.4875 208.759C22.9711 212.911 24.6318 216.73 28.4512 232.174C31.1082 242.304 34.7616 253.264 36.5883 256.419C42.0684 265.719 39.2453 264.224 32.4367 254.26C28.9494 249.279 25.7942 245.127 25.4621 245.127C24.2997 245.127 31.2743 257.582 36.2562 264.39C42.5666 273.025 59.3389 285.646 72.79 292.123C80.9271 295.942 83.0859 297.603 82.2556 299.762C75.2809 317.696 74.9488 349.746 81.4252 370.504C89.8944 397.406 104.342 418.164 125.93 434.106C141.374 445.565 194.016 473.297 209.128 477.781C220.586 481.268 221.748 484.922 221.748 519.13C221.748 542.545 221.084 550.184 218.593 558.155C213.943 573.765 204.81 596.35 195.676 615.945C191.027 625.743 187.539 633.88 187.871 634.212C198.666 641.353 216.932 656.963 226.232 666.76C242.008 683.533 252.138 698.478 269.906 730.861C294.65 775.864 307.769 792.636 330.519 808.08C341.978 815.885 365.725 827.509 373.198 829.004L378.013 830L378.179 793.632C378.345 754.109 381.169 724.052 387.977 690.175C401.428 623.252 424.013 575.426 448.258 563.303C460.214 557.159 466.857 556.827 504.055 560.646C551.549 565.462 568.487 563.801 577.953 552.841C586.256 543.376 587.419 534.906 583.599 509.001C582.603 501.86 582.935 501.03 589.411 493.557C598.379 483.095 598.379 477.117 589.245 471.138L583.101 467.153L592.234 458.684C599.873 451.377 601.202 449.218 601.202 444.07C601.202 440.915 599.873 436.431 598.213 434.272C594.393 429.457 591.404 421.153 592.4 418.164C592.899 417.002 597.382 413.182 602.53 409.695C615.151 401.226 619.469 396.244 620.465 389.269C621.295 384.121 620.465 382.461 612.66 372.995C607.678 367.349 600.537 358.382 596.552 353.234C589.079 343.602 577.953 322.346 577.953 317.862C577.953 316.368 580.112 314.375 582.769 313.213C585.426 312.216 589.743 309.061 592.234 306.238C596.552 301.588 596.718 301.256 592.899 303.747C587.086 307.733 585.26 307.234 588.913 302.751C592.068 299.097 592.068 299.097 588.747 301.754C584.097 305.574 575.296 309.891 574.133 308.895C573.635 308.397 574.798 302.917 576.458 296.938C583.599 272.527 586.588 254.759 585.592 242.47C583.433 218.557 570.314 175.214 556.365 146.652C550.885 135.526 550.22 132.868 551.549 128.385C555.202 115.598 544.574 87.8655 530.293 73.0859C525.975 68.6022 518.004 61.4615 512.69 57.476C507.376 53.3244 499.903 47.6783 496.084 44.6891C482.135 34.0612 456.229 23.267 432.648 18.6173C426.172 17.2888 415.544 14.2997 408.901 11.8087C386.15 3.67163 369.876 0.848572 340.483 0.184326C320.888 -0.313843 309.263 0.184326 299.798 1.84497ZM361.573 7.82324C376.851 10.4802 374.36 12.1409 357.588 10.4802C333.509 8.15533 296.975 10.6463 264.094 16.9567C261.769 17.2888 262.932 16.4585 266.585 15.13C285.849 7.49109 337.162 3.67163 361.573 7.82324ZM452.742 26.5883C465.03 30.7399 489.109 42.3643 487.947 43.5267C487.449 43.8588 484.294 43.0285 480.64 41.8661C477.153 40.5376 470.012 38.2127 465.03 36.7181C455.066 33.729 434.309 22.6028 438.626 22.6028C439.955 22.6028 446.431 24.4295 452.742 26.5883ZM492.098 49.5049C500.402 53.9886 508.04 59.6348 512.524 64.7827C523.152 76.4072 521.492 77.2374 508.705 66.4434C502.727 61.2954 493.261 54.1547 487.615 50.6674C476.655 43.5267 475.492 42.5303 477.485 42.5303C478.149 42.5303 484.792 45.6855 492.098 49.5049ZM537.434 91.6849C540.755 97.6631 543.08 102.811 542.748 103.309C541.419 104.472 528.134 83.2157 528.134 79.8945C528.134 77.0714 531.954 82.0533 537.434 91.6849ZM74.1185 285.978C82.7537 288.967 87.0714 291.625 83.0859 291.625C80.5949 291.625 63.1583 283.654 64.985 283.487C65.4832 283.321 69.6348 284.484 74.1185 285.978ZM86.2411 358.714C95.0424 390.598 113.475 417.666 142.038 440.915C151.67 448.72 142.37 443.738 131.244 435.103C103.346 413.681 86.2411 386.114 80.5949 353.898C77.7719 337.624 77.6058 330.649 79.2664 318.859C80.4289 311.552 80.5949 312.382 81.5913 328.324C82.2556 338.122 84.4144 351.739 86.2411 358.714Z" fill="url(#paint0_linear_11_1064)"/>
<defs>
<linearGradient id="paint0_linear_11_1064" x1="420.792" y1="594.236" x2="310.493" y2="-5.51833e-05" gradientUnits="userSpaceOnUse">
<stop/>
<stop offset="1" stop-color="#D94179"/>
</linearGradient>
</defs>
</svg>
