<svg width="129" height="85" viewBox="0 0 129 85" fill="none" xmlns="http://www.w3.org/2000/svg">
<path fill-rule="evenodd" clip-rule="evenodd" d="M122.1 6.37498C124.823 9.85375 126.588 13.9799 127.22 18.3458C128.016 24.8333 128.443 31.3604 128.5 37.8958V47.0333C128.446 53.5924 128.019 60.1432 127.22 66.6544C126.588 71.0198 124.823 75.1464 122.1 78.6248C118.633 81.8744 114.06 83.6965 109.3 83.7248C91.38 85 64.5 85 64.5 85C64.5 85 31.22 85 21.1222 83.7957C15.9226 83.7687 10.8945 81.9403 6.9 78.6248C4.16578 75.1259 2.40042 70.9737 1.78 66.5836C0.983794 60.0959 0.556445 53.5688 0.5 47.0333V37.8958C0.553761 31.3367 0.981114 24.7859 1.78 18.275C2.41236 13.909 4.17712 9.78297 6.9 6.30414C10.3668 3.05477 14.9398 1.23275 19.7 1.2042C37.62 3.16695e-07 64.5 0 64.5 0C64.5 0 91.38 2.1113e-07 109.3 1.27497C114.06 1.30359 118.633 3.12561 122.1 6.37498ZM92.9444 42.506L50.2778 21.253V63.759L92.9444 42.506Z" fill="#F3E0EC"/>
</svg>
