<svg width="85" height="85" viewBox="0 0 85 85" fill="none" xmlns="http://www.w3.org/2000/svg">
<path d="M84.5 42.7577C84.4991 34.5858 82.171 26.5852 77.7913 19.7032C73.412 12.8212 67.164 7.34592 59.7878 3.92568C52.4116 0.505385 44.216 -0.716676 36.171 0.404151C28.126 1.52494 20.5686 4.94172 14.3936 10.2499C8.21854 15.5581 3.68444 22.5354 1.32806 30.3559C-1.02832 38.1763 -1.10829 46.5123 1.0976 54.377C3.3035 62.2417 7.7029 69.3061 13.7749 74.7329C19.8469 80.1602 27.3374 83.7234 35.3594 85V55.1197H24.5679V42.7577H35.3594V33.3357C35.3594 22.6201 41.706 16.6974 51.4104 16.6974C54.5983 16.7434 57.7787 17.0221 60.9268 17.5313V28.058H55.5647C53.9506 27.8425 52.3172 28.2807 51.0243 29.2764C49.731 30.2721 48.8841 31.7437 48.6689 33.3678C48.6081 33.8225 48.5987 34.2828 48.6407 34.7397V42.7577H60.4168L58.5325 55.1197H48.6157V85C58.6175 83.4142 67.7282 78.2876 74.3067 70.5431C80.8857 62.7985 84.5004 52.9456 84.5 42.7577Z" fill="#F3E0EC"/>
</svg>
