<svg width="72" height="85" viewBox="0 0 72 85" fill="none" xmlns="http://www.w3.org/2000/svg">
<path d="M29.8395 31.6545V46.2638C28.0746 45.7791 26.228 45.7129 24.4353 46.0702C22.6427 46.4275 20.95 47.1996 19.4818 48.329C18.0136 49.4585 16.8074 50.9166 15.9522 52.5965C15.0968 54.2759 14.6142 56.1341 14.5399 58.0338C14.4395 59.6694 14.6763 61.3083 15.2344 62.8407C15.7925 64.3736 16.659 65.7632 17.7757 66.9183C18.8924 68.073 20.2333 68.9655 21.7085 69.5349C23.1836 70.1054 24.7588 70.3399 26.3282 70.2233C35.0388 70.2233 38.1164 63.8483 38.1164 57.8692V0H51.9829C54.3416 15.2814 61.673 18.8274 71.5 20.4664V35.1076C71.5 35.1076 59.842 34.2443 52.3756 28.3794V57.303C52.368 70.3908 44.9196 85 26.4328 85C9.27686 85 0.5 69.8589 0.5 57.1679C0.609448 53.4076 1.4828 49.7139 3.06257 46.3314C4.64229 42.9484 6.89259 39.9526 9.66492 37.5418C12.4373 35.131 15.6688 33.3598 19.1463 32.345C22.6238 31.3302 26.2683 31.0948 29.8395 31.6545Z" fill="#F3E0EC"/>
</svg>
